# xmcd
#
# Track frame offsets:
#	150
#	21405
#	38517
#	57805
#	75210
#	92735
#
# Disc length: 1440 seconds
#
# Revision: 1
# Processed by: cddbd v1.5.1PL2 Copyright (c) Steve Scherf et al.
# Submitted via: audiograbber 1.81.02
#
DISCID=37059e06
DTITLE=Leann Rimes - Whatever We Wanna
DYEAR=2006
DGENRE=Country
TTITLE0=Some People
TTITLE1=And It Feels Like
TTITLE2=Strong
TTITLE3=Satisfied
TTITLE4=For The First Time
TTITLE5=Whatever We Wanna
EXTD=
EXTT0=
EXTT1=
EXTT2=
EXTT3=
EXTT4=
EXTT5=
PLAYORDER=
